<svg width="778" height="772" xmlns="http://www.w3.org/2000/svg" p-id="6620" version="1.1" class="icon">

 <g>
  <title>Layer 1</title>
  <path id="svg_1" p-id="6621" fill="#37474F" d="m500.2755,46.42321l85.33333,64l-64,106.66666s-42.66667,-106.66666 -21.33333,-170.66666zm271.36,0l-85.33334,64l64,106.66666s42.66667,-106.66666 21.33334,-170.66666z"/>
  <path id="svg_2" p-id="6622" fill="#455A64" d="m472.96883,515.75654l106.66667,213.41867s0,42.58133 42.66666,42.58133l85.33334,0s0,-42.66667 -42.66667,-42.66667l-64,-149.33333l42.66667,-170.66667l-170.66667,106.66667zm-362.66667,64.04267l42.66667,149.376s5.33333,42.58133 42.66667,42.58133l85.33333,0s0,-42.66667 -42.66667,-42.66667l-42.66666,-127.97866l-85.33334,-21.312z"/>
  <path id="svg_3" p-id="6623" fill="#455A64" d="m302.30216,537.13254c-42.66666,64 -106.66666,106.66667 -106.66666,106.66667l-85.33334,-64s21.33334,-85.33334 21.33334,-192l170.66666,149.33333z"/>
  <path id="svg_4" p-id="6624" fill="#455A64" d="m475.2415,537.08987c-89.664,-32.59733 -170.66667,0.04267 -170.66667,0.04267l-170.66666,-0.04267l0,-256c149.33333,-256 533.33333,42.66667 533.33333,42.66667s0.74667,8.17067 0.55467,21.312c-0.768,57.32267 -19.008,209.36533 -192.55467,192.02133z"/>
  <path id="svg_5" p-id="6625" fill="#455A64" d="m155.10216,336.55654l-29.86666,0c-68.18134,0 -121.6,-53.41867 -121.6,-121.6s53.41866,-121.6 121.6,-121.6l29.86666,0c32.832,0 57.6,-24.768 57.6,-57.6a32,32 0 0 1 64,0c0,68.18133 -53.41866,121.6 -121.6,121.6l-29.86666,0c-32.832,0 -57.6,24.74667 -57.6,57.57867s24.768,57.6 57.6,57.6l29.86666,0a32,32 0 0 1 0,64.02133z"/>
  <path id="svg_6" p-id="6626" fill="#455A64" d="m632.96883,227.75654m-138.66667,0a138.66667,138.66667 0 1 0 277.33334,0a138.66667,138.66667 0 1 0 -277.33334,0z"/>
  <path id="svg_7" p-id="6627" fill="#263238" d="m152.96883,729.17521l-29.26933,-102.464l-34.73067,81.04533s0,64 42.66667,64l64,0c-37.33334,0 -42.66667,-42.58133 -42.66667,-42.58133zm427.15733,5.33333a43.81867,43.81867 0 0 0 -21.824,-5.376l0,-42.64533l-74.432,-148.90667c-3.69066,-0.23467 -7.06133,-0.10667 -10.90133,-0.49067l0,192.128s0,42.58134 42.66667,42.58134l85.33333,0s-0.08533,-2.24 -0.512,-5.41867c-14.86933,-8.21333 -19.2,-23.68 -20.33067,-31.872zm-277.824,-197.376c-29.16266,43.75467 -67.88266,77.12 -89.70666,94.10133c0,0 -1.28,0.896 -2.368,1.87734a19.2,19.2 0 0 1 -0.78934,0.59733l0.02134,0.04267c-1.152,0.91733 -2.24,1.664 -2.368,1.77066l5.61066,16.768l4.26667,-8.53333s85.33333,-42.624 128,-106.624l10.304,-12.37333c-32.14933,4.01066 -52.97067,12.37333 -52.97067,12.37333zm330.66667,-170.70933a138.66667,138.66667 0 0 1 -138.66667,-138.66667c0,-1.62133 0.192,-3.17867 0.256,-4.8a663.552,663.552 0 0 0 -41.472,-16.96a178.34667,178.34667 0 0 0 -1.45066,21.76c0,100.01067 81.344,181.33333 181.33333,181.33333a182.82667,182.82667 0 0 0 25.25867,-1.96266c3.66933,-16.192 5.61066,-31.44534 6.50666,-44.50134a137.87733,137.87733 0 0 1 -31.76533,3.79734zm10.66667,-85.33334s-11.56267,16 -21.33334,0l-21.33333,-21.312l0,-21.33333l64.02133,-0.02133l0,21.33333l-21.35466,21.33333z"/>
  <path id="svg_8" p-id="6628" fill="#FFEB3B" d="m728.96883,174.42321s6.22933,63.97866 -32,63.97866l-31.97867,0.02134s-7.12533,-64 31.97867,-64l32,0zm-192,0.02133s-7.97867,63.97867 32,63.97867l32,0.02133s8.02133,-64.02133 -32,-64.02133l-32,0.02133z"/>
 </g>
</svg>
